<svg width="15" height="16" viewBox="0 0 15 16" fill="none" xmlns="http://www.w3.org/2000/svg">
<path id="Vector" d="M12.5273 16C11.8607 16 11.294 15.7667 10.8273 15.3C10.3607 14.8333 10.1273 14.2667 10.1273 13.6C10.1273 13.5067 10.134 13.4099 10.1473 13.3096C10.1607 13.2093 10.1807 13.1195 10.2073 13.04L4.56734 9.76C4.34068 9.96 4.08734 10.1168 3.80734 10.2304C3.52734 10.344 3.23401 10.4005 2.92734 10.4C2.26068 10.4 1.69401 10.1667 1.22734 9.7C0.760677 9.23333 0.527344 8.66667 0.527344 8C0.527344 7.33333 0.760677 6.76667 1.22734 6.3C1.69401 5.83333 2.26068 5.6 2.92734 5.6C3.23401 5.6 3.52734 5.6568 3.80734 5.7704C4.08734 5.884 4.34068 6.04053 4.56734 6.24L10.2073 2.96C10.1807 2.88 10.1607 2.79013 10.1473 2.6904C10.134 2.59067 10.1273 2.49387 10.1273 2.4C10.1273 1.73333 10.3607 1.16667 10.8273 0.7C11.294 0.233333 11.8607 0 12.5273 0C13.194 0 13.7607 0.233333 14.2273 0.7C14.694 1.16667 14.9273 1.73333 14.9273 2.4C14.9273 3.06667 14.694 3.63333 14.2273 4.1C13.7607 4.56667 13.194 4.8 12.5273 4.8C12.2207 4.8 11.9273 4.74347 11.6473 4.6304C11.3673 4.51733 11.114 4.36053 10.8873 4.16L5.24734 7.44C5.27401 7.52 5.29401 7.61013 5.30735 7.7104C5.32068 7.81067 5.32734 7.9072 5.32734 8C5.32734 8.0928 5.32068 8.1896 5.30735 8.2904C5.29401 8.3912 5.27401 8.48107 5.24734 8.56L10.8873 11.84C11.114 11.64 11.3673 11.4835 11.6473 11.3704C11.9273 11.2573 12.2207 11.2005 12.5273 11.2C13.194 11.2 13.7607 11.4333 14.2273 11.9C14.694 12.3667 14.9273 12.9333 14.9273 13.6C14.9273 14.2667 14.694 14.8333 14.2273 15.3C13.7607 15.7667 13.194 16 12.5273 16Z" fill="black"/>
</svg>
